<svg width="616" height="577" viewBox="0 0 616 577" fill="none" xmlns="http://www.w3.org/2000/svg">
<g id="Illustration">
<g id="Shape">
<path id="Oval" opacity="0.0528274" fill-rule="evenodd" clip-rule="evenodd" d="M615.643 175.086C615.643 78.3885 536.909 0 439.786 0C342.663 0 263.929 78.3885 263.929 175.086C263.929 271.783 342.663 350.171 439.786 350.171C536.909 350.171 615.643 271.783 615.643 175.086ZM329.67 175.086C329.67 114.537 378.971 65.4526 439.786 65.4526C500.601 65.4526 549.902 114.537 549.902 175.086C549.902 235.634 500.601 284.719 439.786 284.719C378.971 284.719 329.67 235.634 329.67 175.086Z" fill="#7367F0"/>
<g id="Oval_2" opacity="0.14102" filter="url(#filter0_f_7_224)">
<path fill-rule="evenodd" clip-rule="evenodd" d="M66.7069 277.628C66.7069 250.216 44.3867 227.993 16.8534 227.993C-10.6799 227.993 -33 250.216 -33 277.628C-33 305.041 -10.6799 327.263 16.8534 327.263C44.3867 327.263 66.7069 305.041 66.7069 277.628ZM-0.129581 277.628C-0.129581 268.29 7.47399 260.72 16.8535 260.72C26.2329 260.72 33.8365 268.29 33.8365 277.628C33.8365 286.966 26.2329 294.537 16.8535 294.537C7.47399 294.537 -0.129581 286.966 -0.129581 277.628Z" fill="#8BF78F"/>
</g>
<ellipse id="Oval_3" cx="170.797" cy="436.351" rx="98.6112" ry="98.1789" fill="#7367F0" fill-opacity="0.0612161"/>
<ellipse id="Oval_4" opacity="0.14102" cx="137.926" cy="92.7245" rx="35.0618" ry="34.9081" fill="#CEF5FF"/>
<g id="Oval_5" filter="url(#filter1_f_7_224)">
<ellipse cx="550.998" cy="436.351" rx="35.0618" ry="34.9081" fill="#7367F0" fill-opacity="0.135927"/>
</g>
</g>
<g id="File Organizer">
<g id="Phone3">
<path id="Rectangle" fill-rule="evenodd" clip-rule="evenodd" d="M169.865 145.256C169.865 131.373 181.119 120.119 195.002 120.119H366.762C380.645 120.119 391.899 131.373 391.899 145.256V551.167C391.899 565.05 380.645 576.304 366.762 576.304H195.002C181.119 576.304 169.865 565.05 169.865 551.167V145.256Z" fill="#C4E3E7"/>
<g id="Group 48">
<path id="Rectangle_2" fill-rule="evenodd" clip-rule="evenodd" d="M177.873 147.834C177.873 137.604 186.165 129.312 196.395 129.312H227.727C228.545 129.312 229.214 129.962 229.238 130.779C229.409 136.636 234.207 141.296 240.066 141.296H320.97C326.829 141.296 331.627 136.636 331.798 130.779C331.822 129.962 332.491 129.312 333.309 129.312H364.641C374.871 129.312 383.163 137.604 383.163 147.834V545.866C383.163 556.095 374.871 564.388 364.641 564.388H196.395C186.165 564.388 177.873 556.095 177.873 545.866V147.834Z" fill="white"/>
<mask id="mask0_7_224" style="mask-type:luminance" maskUnits="userSpaceOnUse" x="177" y="129" width="207" height="436">
<path id="Rectangle_3" fill-rule="evenodd" clip-rule="evenodd" d="M177.873 147.834C177.873 137.604 186.165 129.312 196.395 129.312H227.727C228.545 129.312 229.214 129.962 229.238 130.779C229.409 136.636 234.207 141.296 240.066 141.296H320.97C326.829 141.296 331.627 136.636 331.798 130.779C331.822 129.962 332.491 129.312 333.309 129.312H364.641C374.871 129.312 383.163 137.604 383.163 147.834V545.866C383.163 556.095 374.871 564.388 364.641 564.388H196.395C186.165 564.388 177.873 556.095 177.873 545.866V147.834Z" fill="white"/>
</mask>
<g mask="url(#mask0_7_224)">
<ellipse id="Oval_6" opacity="0.0987723" cx="255.704" cy="394.116" rx="17.608" ry="17.4312" fill="#7367F0"/>
<path id="Oval_7" opacity="0.14102" fill-rule="evenodd" clip-rule="evenodd" d="M361.077 376.685C408.028 376.685 446.09 414.364 446.09 460.845C446.09 507.325 408.028 545.005 361.077 545.005C314.125 545.005 276.063 507.325 276.063 460.845C276.063 414.364 314.125 376.685 361.077 376.685ZM361.077 413.454C334.638 413.454 313.205 434.671 313.205 460.845C313.205 487.018 334.638 508.236 361.077 508.236C387.515 508.236 408.948 487.018 408.948 460.845C408.948 434.671 387.515 413.454 361.077 413.454Z" fill="#C8F5D0"/>
<path id="Rectangle_4" fill-rule="evenodd" clip-rule="evenodd" d="M202.88 209.726C202.88 206.567 205.441 204.007 208.6 204.007H353.981C357.14 204.007 359.701 206.567 359.701 209.726C359.701 212.885 357.14 215.446 353.981 215.446H208.599C205.441 215.446 202.88 212.885 202.88 209.726Z" fill="#68DE9E" fill-opacity="0.642073"/>
</g>
</g>
<path id="Path" d="M292.917 128.105C294.816 128.105 296.356 129.569 296.356 131.374C296.356 133.139 294.884 134.577 293.043 134.64L292.917 134.642H254.03C252.13 134.642 250.591 133.179 250.591 131.374C250.591 129.609 252.063 128.171 253.904 128.108L254.03 128.105H292.917Z" fill="#56CDD9"/>
<path id="Path_2" d="M306.854 127.561C308.753 127.561 310.293 129.085 310.293 130.965C310.293 132.804 308.821 134.302 306.98 134.367L306.854 134.37H306.673C304.774 134.37 303.234 132.845 303.234 130.965C303.234 129.127 304.706 127.629 306.547 127.563L306.673 127.561H306.854Z" fill="#56CDD9"/>
</g>
<g id="Icon54">
<g id="Group 37">
<path id="Rectangle_5" fill-rule="evenodd" clip-rule="evenodd" d="M184.171 278.5C184.171 276.291 185.962 274.5 188.171 274.5L195.904 274.5C198.113 274.5 199.904 276.291 199.904 278.5V282.055C199.904 282.728 200.45 283.274 201.123 283.274H251.623C253.832 283.274 255.623 285.065 255.623 287.274V330.276C255.623 332.485 253.832 334.276 251.623 334.276H188.171C185.962 334.276 184.171 332.485 184.171 330.276V278.5Z" fill="url(#paint0_linear_7_224)"/>
<path id="Rectangle_6" fill-rule="evenodd" clip-rule="evenodd" d="M201.137 279.677C201.233 279.086 201.743 278.651 202.341 278.651H257.167C257.918 278.651 258.49 279.323 258.371 280.065L250.136 331.175C250.041 331.766 249.531 332.2 248.932 332.2H194.106C193.355 332.2 192.783 331.528 192.902 330.787L201.137 279.677Z" fill="url(#paint1_linear_7_224)"/>
<path id="Rectangle_7" fill-rule="evenodd" clip-rule="evenodd" d="M260.248 292.25C262.766 292.25 264.658 294.55 264.173 297.021L257.992 328.492C257.255 332.244 253.966 334.95 250.142 334.95H189.033C186.515 334.95 184.623 332.65 185.108 330.179L191.289 298.709C192.026 294.957 195.316 292.25 199.139 292.25L260.248 292.25Z" fill="#FFCC7B"/>
</g>
</g>
<g id="Group 28">
<path id="Rectangle_8" fill-rule="evenodd" clip-rule="evenodd" d="M102.734 224.17C102.734 220.856 105.421 218.17 108.734 218.17H142.753L155.558 231.243V274.268C155.558 277.582 152.872 280.268 149.558 280.268H108.734C105.421 280.268 102.734 277.582 102.734 274.268V224.17Z" fill="#B7B1FB"/>
<g id="Icon">
<path id="Mask" fill-rule="evenodd" clip-rule="evenodd" d="M133.912 262.668C135.739 262.668 137.137 261.274 137.137 259.452V242.304C137.137 240.481 135.739 239.088 133.912 239.088H128.536C127.891 239.088 127.461 239.517 127.461 240.16C127.461 240.803 127.891 241.232 128.536 241.232H133.912C134.557 241.232 134.987 241.66 134.987 242.304V259.452C134.987 260.095 134.557 260.524 133.912 260.524H128.536C127.891 260.524 127.461 260.953 127.461 261.596C127.461 262.239 127.891 262.668 128.536 262.668H133.912ZM130.579 250.449C130.687 250.771 130.687 251.092 130.579 251.307C130.579 251.414 130.472 251.521 130.364 251.628L126.064 255.915C125.849 256.13 125.526 256.237 125.311 256.237C125.096 256.237 124.774 256.13 124.559 255.915C124.129 255.487 124.129 254.843 124.559 254.415L127.031 251.95H116.711C116.065 251.95 115.635 251.521 115.635 250.878C115.635 250.235 116.065 249.806 116.711 249.806H127.031L124.559 247.341C124.129 246.912 124.129 246.269 124.559 245.84C124.989 245.412 125.634 245.412 126.064 245.84L130.364 250.128C130.418 250.181 130.445 250.235 130.472 250.288C130.498 250.342 130.525 250.396 130.579 250.449Z" fill="black"/>
<mask id="mask1_7_224" style="mask-type:luminance" maskUnits="userSpaceOnUse" x="115" y="239" width="23" height="24">
<path id="Mask_2" fill-rule="evenodd" clip-rule="evenodd" d="M133.912 262.668C135.739 262.668 137.137 261.274 137.137 259.452V242.304C137.137 240.481 135.739 239.088 133.912 239.088H128.536C127.891 239.088 127.461 239.517 127.461 240.16C127.461 240.803 127.891 241.232 128.536 241.232H133.912C134.557 241.232 134.987 241.66 134.987 242.304V259.452C134.987 260.095 134.557 260.524 133.912 260.524H128.536C127.891 260.524 127.461 260.953 127.461 261.596C127.461 262.239 127.891 262.668 128.536 262.668H133.912ZM130.579 250.449C130.687 250.771 130.687 251.092 130.579 251.307C130.579 251.414 130.472 251.521 130.364 251.628L126.064 255.915C125.849 256.13 125.526 256.237 125.311 256.237C125.096 256.237 124.774 256.13 124.559 255.915C124.129 255.487 124.129 254.843 124.559 254.415L127.031 251.95H116.711C116.065 251.95 115.635 251.521 115.635 250.878C115.635 250.235 116.065 249.806 116.711 249.806H127.031L124.559 247.341C124.129 246.912 124.129 246.269 124.559 245.84C124.989 245.412 125.634 245.412 126.064 245.84L130.364 250.128C130.418 250.181 130.445 250.235 130.472 250.288C130.498 250.342 130.525 250.396 130.579 250.449Z" fill="white"/>
</mask>
<g mask="url(#mask1_7_224)">
<g id="Icon Color">
<rect id="&#240;&#159;&#142;&#168; Icon Color" x="113.485" y="238.016" width="25.8019" height="25.723" fill="white"/>
</g>
</g>
</g>
<path id="Path_3" opacity="0.33996" d="M155.558 231.243H145.753C144.096 231.243 142.753 229.9 142.753 228.243V218.17L155.558 231.243Z" fill="#7367F0"/>
</g>
<g id="Group">
<path id="Rectangle_9" fill-rule="evenodd" clip-rule="evenodd" d="M125.845 385.408C125.845 382.095 128.531 379.408 131.845 379.408H194.679C197.993 379.408 200.679 382.095 200.679 385.408V435.507C200.679 438.821 197.993 441.507 194.679 441.507H131.845C128.531 441.507 125.845 438.821 125.845 435.507V385.408Z" fill="#6FD9E6"/>
<g id="Icon_2">
<path id="Mask_3" fill-rule="evenodd" clip-rule="evenodd" d="M171.178 407.989H169.923V404.238C169.923 400.112 166.537 396.736 162.398 396.736C158.259 396.736 154.872 400.112 154.872 404.238V407.989H153.618C151.486 407.989 149.855 409.615 149.855 411.741V420.494C149.855 422.619 151.486 424.245 153.618 424.245H171.178C173.31 424.245 174.94 422.619 174.94 420.494V411.741C174.94 409.615 173.31 407.989 171.178 407.989ZM157.381 404.238C157.381 401.487 159.638 399.236 162.398 399.236C165.157 399.236 167.415 401.487 167.415 404.238V407.989H157.381V404.238ZM171.178 421.744C171.93 421.744 172.432 421.244 172.432 420.494V411.741C172.432 410.99 171.93 410.49 171.178 410.49H153.618C152.865 410.49 152.364 410.99 152.364 411.741V420.494C152.364 421.244 152.865 421.744 153.618 421.744H171.178Z" fill="black"/>
<mask id="mask2_7_224" style="mask-type:luminance" maskUnits="userSpaceOnUse" x="149" y="396" width="26" height="29">
<path id="Mask_4" fill-rule="evenodd" clip-rule="evenodd" d="M171.178 407.989H169.923V404.238C169.923 400.112 166.537 396.736 162.398 396.736C158.259 396.736 154.872 400.112 154.872 404.238V407.989H153.618C151.486 407.989 149.855 409.615 149.855 411.741V420.494C149.855 422.619 151.486 424.245 153.618 424.245H171.178C173.31 424.245 174.94 422.619 174.94 420.494V411.741C174.94 409.615 173.31 407.989 171.178 407.989ZM157.381 404.238C157.381 401.487 159.638 399.236 162.398 399.236C165.157 399.236 167.415 401.487 167.415 404.238V407.989H157.381V404.238ZM171.178 421.744C171.93 421.744 172.432 421.244 172.432 420.494V411.741C172.432 410.99 171.93 410.49 171.178 410.49H153.618C152.865 410.49 152.364 410.99 152.364 411.741V420.494C152.364 421.244 152.865 421.744 153.618 421.744H171.178Z" fill="white"/>
</mask>
<g mask="url(#mask2_7_224)">
<g id="Icon Color_2">
<rect id="&#240;&#159;&#142;&#168; Icon Color_2" x="147.347" y="395.485" width="30.1023" height="30.0102" fill="white"/>
</g>
</g>
</g>
</g>
<g id="Group 34">
<path id="Rectangle_10" d="M190.774 187.128C190.774 183.815 193.461 181.128 196.774 181.128H259.608C262.922 181.128 265.608 183.815 265.608 187.128V237.227C265.608 240.541 262.922 243.227 259.608 243.227H196.774C193.461 243.227 190.774 240.541 190.774 237.227V187.128Z" fill="#BAF3C4"/>
<mask id="mask3_7_224" style="mask-type:luminance" maskUnits="userSpaceOnUse" x="190" y="181" width="76" height="63">
<path id="Rectangle_11" d="M190.774 187.128C190.774 183.815 193.461 181.128 196.774 181.128H259.608C262.922 181.128 265.608 183.815 265.608 187.128V237.227C265.608 240.541 262.922 243.227 259.608 243.227H196.774C193.461 243.227 190.774 240.541 190.774 237.227V187.128Z" fill="white"/>
</mask>
<g mask="url(#mask3_7_224)">
<ellipse id="Oval_8" cx="223.789" cy="204.007" rx="9.90449" ry="9.80506" fill="white"/>
<ellipse id="Oval_9" cx="201.229" cy="254.666" rx="35.7662" ry="35.4072" fill="#28C76F"/>
<ellipse id="Oval_10" cx="266.159" cy="246.495" rx="42.3692" ry="41.3991" fill="#69E09E"/>
</g>
</g>
<g id="Group 23">
<g id="Rectangle_12" filter="url(#filter2_dd_7_224)">
<path fill-rule="evenodd" clip-rule="evenodd" d="M289.859 166.111C289.837 160.572 294.321 156.071 299.859 156.071H411.259C416.766 156.071 421.237 160.524 421.259 166.031L421.839 311.628C421.861 317.166 417.378 321.667 411.839 321.667H300.44C294.933 321.667 290.462 317.215 290.44 311.707L289.859 166.111Z" fill="white"/>
</g>
<path id="Rectangle_13" opacity="0.33996" d="M331.638 261.748C331.638 259.943 333.102 258.479 334.907 258.479H376.792C378.597 258.479 380.06 259.943 380.06 261.748C380.06 263.553 378.597 265.016 376.792 265.016H334.907C333.102 265.016 331.638 263.553 331.638 261.748Z" fill="#7367F0"/>
<path id="Rectangle_14" opacity="0.33996" d="M320.633 279.179C320.633 277.374 322.097 275.91 323.902 275.91H387.797C389.602 275.91 391.065 277.374 391.065 279.179C391.065 280.984 389.602 282.447 387.797 282.447H323.902C322.097 282.447 320.633 280.984 320.633 279.179Z" fill="#7367F0"/>
<g id="Icon8">
<g id="Oval_11" filter="url(#filter3_dd_7_224)">
<ellipse cx="355.932" cy="209.005" rx="25.394" ry="25.6977" fill="white"/>
</g>
<g id="Group 70">
<path id="Combined Shape" fill-rule="evenodd" clip-rule="evenodd" d="M356.411 208.153C359.998 208.153 362.907 205.274 362.907 201.722C362.907 198.17 359.998 195.291 356.411 195.291C352.823 195.291 349.915 198.17 349.915 201.722C349.915 205.274 352.823 208.153 356.411 208.153ZM355.564 209.973C350.251 209.973 345.945 214.28 345.945 219.592C345.945 220.199 346.437 220.691 347.044 220.691H365.777C366.384 220.691 366.876 220.199 366.876 219.592C366.876 214.28 362.57 209.973 357.258 209.973H355.564Z" fill="#7367F0"/>
</g>
</g>
</g>
<g id="Wom3.5">
<g id="RArm">
<path id="Path_4" fill-rule="evenodd" clip-rule="evenodd" d="M481.615 342.513C481.615 342.513 469.309 354.565 470.063 355.743C470.818 356.93 477.02 354.173 477.02 354.173C477.02 354.173 469.282 366.833 470.874 367.806C472.466 368.778 480.606 366.809 483.102 364.199C485.599 361.59 489.452 348.421 489.452 348.421L508.169 313.72L494.594 309.069L481.615 342.513Z" fill="url(#paint2_linear_7_224)"/>
<path id="Path_5" fill-rule="evenodd" clip-rule="evenodd" d="M469.048 278.366C474.216 286.315 491.613 308.971 491.613 308.971L490.345 313.491L506.333 324.341C506.333 324.341 510.874 311.92 511.268 310.172C512.568 304.408 486.303 267.622 480.422 262.307C471.162 253.937 461.149 266.217 469.048 278.366Z" fill="#FD8715"/>
<path id="Path_6" fill-rule="evenodd" clip-rule="evenodd" d="M495.771 314.985C496.069 314.409 491.638 308.889 491.638 308.889L490.888 311.574C490.888 311.574 495.473 315.561 495.771 314.985Z" fill="black" fill-opacity="0.159856"/>
<path id="Path 70" fill-rule="evenodd" clip-rule="evenodd" d="M490.246 311.974L507.231 324.815L503.446 333.119L488.595 316.766L490.246 311.974Z" fill="#FFEDC2"/>
</g>
<g id="RLeg">
<path id="Path_7" fill-rule="evenodd" clip-rule="evenodd" d="M479.524 545.674L478.581 561.587L490.674 561.898L488.401 545.674H479.524Z" fill="url(#paint3_linear_7_224)"/>
<path id="Path_8" fill-rule="evenodd" clip-rule="evenodd" d="M491.248 551.943C491.248 551.943 490.908 561.525 492.913 564.871C494.93 568.217 495.541 570.811 495.63 572.812C495.726 574.956 495.521 576.9 495.521 576.9H475.504C475.504 576.9 475.003 566.818 476.329 564.916C477.655 563.015 478.525 562.982 478.525 561.303C478.535 559.623 478.822 552.006 478.822 552.006L491.248 551.943Z" fill="#391B0B"/>
<path id="Path_9" fill-rule="evenodd" clip-rule="evenodd" d="M436.916 333.227L468.289 329.851L468.75 330.275C470.986 332.384 480.703 342.179 483.495 355.567C488.766 380.842 481.711 427.525 481.867 437.761C482.016 447.998 486.903 454.174 488.933 468.647C490.964 483.121 491.155 547.805 491.155 547.805C485.772 550.964 481.035 551.19 474.616 547.616L436.916 333.227Z" fill="#4E3319"/>
<path id="Path_10" fill-rule="evenodd" clip-rule="evenodd" d="M464.94 492.59L436.916 333.227L454.359 331.35C455.136 386.712 465.984 461.546 464.94 492.59Z" fill="white" fill-opacity="0.192499"/>
</g>
<g id="LLeg">
<path id="Path_11" fill-rule="evenodd" clip-rule="evenodd" d="M443.342 544L433.029 544.166C433.029 544.166 433.707 554.763 429.742 558.353L429.525 558.541C424.737 562.513 443.207 561.08 443.207 561.08L443.342 544Z" fill="url(#paint4_linear_7_224)"/>
<path id="Path_12" fill-rule="evenodd" clip-rule="evenodd" d="M443.889 552.261L443.592 576.891L436.249 576.896L436.185 570.827C436.185 570.827 433.869 576.486 430.329 576.813C426.778 577.14 410.957 576.939 410.957 576.939C410.957 576.939 409.642 571.257 417.518 568.677C424.068 566.533 431.311 552.261 431.311 552.261H443.889Z" fill="#391B0B"/>
<path id="Path_13" fill-rule="evenodd" clip-rule="evenodd" d="M421.354 335.418L456.582 334.236L456.846 334.718C458.555 337.928 467.922 356.72 465.029 378.081C460.97 408.063 450.65 443.211 450.144 448.581C449.244 458.154 451.045 465.086 451.784 474.973C452.523 484.861 448.967 547.049 448.967 547.049C443.739 550.161 437.519 550.772 429.61 547.143C429.61 547.143 422.471 462.673 422.418 449.306C422.365 435.938 421.354 335.418 421.354 335.418Z" fill="#604021"/>
<path id="Path_14" fill-rule="evenodd" clip-rule="evenodd" d="M428.603 367.847L428.369 370.068C426.021 393.493 426.039 443.238 426.948 450.91L427.073 451.899C428.081 460.556 428.114 482.534 427.171 517.834L425.944 502.601C423.618 473.291 422.442 455.526 422.418 449.306L422.375 442.868C422.173 416.839 421.354 335.418 421.354 335.418L428.783 335.169C429.577 348.022 429.517 358.914 428.603 367.847Z" fill="white" fill-opacity="0.192499"/>
</g>
<g id="Head">
<path id="Path_15" fill-rule="evenodd" clip-rule="evenodd" d="M434.787 224.392C430.452 224.861 430.76 232.406 436.036 232.8C437.115 240.072 440.961 243.537 445.65 243.938L445.39 254.938L466.132 254.926C466.132 254.926 460.291 247.155 460.582 236.517C460.874 225.878 460.387 215.884 460.387 215.884L433.522 216.361L434.787 224.392Z" fill="url(#paint5_linear_7_224)"/>
<path id="Path_16" fill-rule="evenodd" clip-rule="evenodd" d="M433.844 224.957C438.892 222.981 442.622 231.49 446.485 237.405C450.348 243.319 460.356 242.315 461.735 237.405C466.958 226.652 471.458 212.033 465.364 210.833C464.506 195.291 423.416 198.961 433.844 224.957Z" fill="#8B5030"/>
<path id="Combined Shape_2" fill-rule="evenodd" clip-rule="evenodd" d="M462.039 204.703H453.099H452.988L452.914 204.785C444.994 213.535 443.233 226.436 446.959 238.06C447.216 238.38 447.492 238.676 447.785 238.949C443.665 227.234 445.261 214.057 453.21 205.203H462.634C462.444 205.03 462.246 204.863 462.039 204.703Z" fill="black" fill-opacity="0.199355"/>
<ellipse id="Oval_12" cx="456.545" cy="204.953" rx="4.95225" ry="4.90253" fill="#FB9934"/>
</g>
<g id="Body">
<path id="Path_17" fill-rule="evenodd" clip-rule="evenodd" d="M429.345 257.069C424.717 263.798 417.005 286.639 416.568 291.777C416.075 297.704 422.493 307.146 422.599 315.726C422.693 324.307 417.811 350.145 419.278 352.559C420.733 354.972 462.454 365.658 465.177 365.601C467.887 365.543 485 350.998 482.853 345.973C480.694 340.947 470.673 328.457 471.694 321.609C472.703 314.762 478.563 289.486 481.473 280.884C484.372 272.281 483.405 263.249 477.996 259.548C475.319 257.716 468.177 252.513 455.458 252.537C442.739 252.56 429.704 256.547 429.345 257.069Z" fill="#FD8715"/>
<path id="Path 68" fill-rule="evenodd" clip-rule="evenodd" d="M443.706 252.044C443.706 252.044 443.171 254.938 445.514 254.938C447.857 254.938 463.575 255.451 465.703 254.536C467.832 253.621 467.193 252.044 467.193 252.044H443.706Z" fill="#FFF6E1"/>
<path id="Path_18" fill-rule="evenodd" clip-rule="evenodd" d="M422.628 271.624L422.771 271.553C431.341 267.317 436.489 267.13 438.214 270.991C440.445 275.983 434.66 287.975 420.861 306.97C418.966 301.209 416.24 295.717 416.568 291.777C416.821 288.803 419.51 279.901 422.628 271.624Z" fill="black" fill-opacity="0.159856"/>
</g>
<g id="LArm">
<path id="Path_19" fill-rule="evenodd" clip-rule="evenodd" d="M365.46 257.595C365.46 257.595 363.916 254.277 361.489 253.379C359.063 252.482 355.352 246.536 355.926 244.809C356.499 243.083 361.519 238.294 361.519 238.294C361.519 238.294 357.081 226.504 359.047 225.174C360.784 223.998 367.355 238.848 367.355 238.848C367.355 238.848 371.219 239.425 372.11 240.943C374.357 244.771 372.659 253.379 372.659 253.379L395.467 286.374L385.002 299.659L365.46 257.595Z" fill="url(#paint6_linear_7_224)"/>
<path id="Path_20" fill-rule="evenodd" clip-rule="evenodd" d="M423.684 260.153C415.97 266.937 397.103 284.935 397.103 284.935L394.299 280.683L380.189 294.987C380.189 294.987 390.833 310.616 394.299 310.725C403.33 311.01 419.512 294.13 434.725 280.95C448.365 269.131 438.063 247.508 423.684 260.153Z" fill="#FD8715"/>
<path id="Path_21" fill-rule="evenodd" clip-rule="evenodd" d="M397.159 284.956C397.159 284.956 391.866 291.016 391.429 290.356C390.993 289.695 395.422 282.328 395.422 282.328L397.159 284.956Z" fill="black" fill-opacity="0.159856"/>
<path id="Path 69" fill-rule="evenodd" clip-rule="evenodd" d="M395.989 281.646L379.624 299.659L374.581 289.38L392.875 278.015L395.989 281.646Z" fill="#FFEDC2"/>
</g>
<path id="Path_22" fill-rule="evenodd" clip-rule="evenodd" d="M455.677 201.051C455.677 201.051 460.311 195.075 465.662 196.643C471.013 198.21 475.853 207.82 473.555 216.854C471.268 225.888 473.154 231.041 475.928 237.129C483.381 253.508 457.579 263.907 457.579 263.907C457.579 263.907 459.593 251.771 455.677 244.442C451.644 236.895 449.354 227.217 449.354 221.294C449.354 210.995 455.677 201.051 455.677 201.051Z" fill="#8B5030"/>
</g>
<g id="Group 39">
<path id="Rectangle_15" fill-rule="evenodd" clip-rule="evenodd" d="M397.668 135.487C416.312 124.852 435.211 125.482 454.322 135.487L453.117 148.777C451.473 166.902 441.435 183.212 425.995 192.847C409.886 183.279 399.558 166.357 398.413 147.655L397.668 135.487Z" fill="#28C76F"/>
<ellipse id="Oval_13" cx="425.995" cy="157.062" rx="15.451" ry="15.2959" fill="#1CA258"/>
<g id="Group 40">
<path id="Path_23" fill-rule="evenodd" clip-rule="evenodd" d="M425.775 146.196C430.689 146.196 434.942 149.475 436.177 154.099C436.272 154.456 436.057 154.822 435.696 154.917C435.335 155.011 434.965 154.798 434.87 154.441C433.791 150.402 430.072 147.534 425.775 147.534C420.58 147.534 416.37 151.687 416.37 156.809C416.37 159.7 417.328 162.299 419.255 164.63C419.491 164.916 419.449 165.338 419.16 165.572C418.871 165.806 418.445 165.764 418.209 165.478C416.086 162.91 415.018 160.013 415.018 156.809C415.018 150.947 419.835 146.196 425.775 146.196Z" fill="white"/>
<path id="Path_24" fill-rule="evenodd" clip-rule="evenodd" d="M423.384 149.96C427.21 148.656 431.34 150.543 432.751 154.234L432.828 154.445C433.553 156.53 434.54 157.474 435.802 157.458C436.176 157.454 436.482 157.749 436.487 158.119C436.491 158.488 436.193 158.792 435.819 158.796C433.938 158.82 432.541 157.544 431.641 155.134L431.55 154.881C430.463 151.756 427.022 150.136 423.824 151.225C420.946 152.206 419.407 155.674 420.084 158.732C420.215 159.327 420.382 159.862 420.596 160.377L420.789 160.821C421.431 162.226 422.266 163.279 426.034 167.763C426.273 168.047 426.234 168.469 425.947 168.705C425.66 168.941 425.234 168.903 424.995 168.619L422.974 166.201C420.548 163.272 420 162.436 419.389 160.988L419.346 160.886C419.101 160.297 418.911 159.688 418.763 159.018C417.95 155.345 419.797 151.183 423.384 149.96Z" fill="white"/>
<path id="Path_25" fill-rule="evenodd" clip-rule="evenodd" d="M424.946 153.573C426.928 152.897 429.119 153.952 429.736 155.925C430.624 158.767 432.259 160.533 434.672 161.291C435.028 161.403 435.225 161.779 435.112 162.131C434.999 162.483 434.619 162.678 434.263 162.566C431.407 161.669 429.457 159.564 428.444 156.32C428.057 155.08 426.656 154.405 425.386 154.838C424.035 155.299 423.365 156.59 423.734 158.357C423.921 159.255 424.662 160.478 425.924 162.072L426.139 162.341C426.317 162.561 426.503 162.787 426.704 163.027L428.877 165.572C429.115 165.856 429.074 166.278 428.787 166.514C428.499 166.749 428.073 166.709 427.835 166.424L426.097 164.394L425.662 163.88C425.456 163.634 425.266 163.403 425.083 163.176L424.645 162.623C423.388 161.004 422.639 159.727 422.41 158.627C421.909 156.224 422.926 154.261 424.946 153.573Z" fill="white"/>
<path id="Path_26" fill-rule="evenodd" clip-rule="evenodd" d="M426.149 157.218C426.506 157.109 426.884 157.308 426.993 157.662C427.722 160.017 429.149 161.687 431.833 163.682C432.131 163.904 432.191 164.323 431.967 164.619C431.743 164.914 431.319 164.974 431.021 164.752C428.129 162.603 426.528 160.729 425.701 158.054C425.591 157.7 425.792 157.326 426.149 157.218Z" fill="white"/>
</g>
</g>
</g>
</g>
<defs>
<filter id="filter0_f_7_224" x="-38.4366" y="222.557" width="110.58" height="110.143" filterUnits="userSpaceOnUse" color-interpolation-filters="sRGB">
<feFlood flood-opacity="0" result="BackgroundImageFix"/>
<feBlend mode="normal" in="SourceGraphic" in2="BackgroundImageFix" result="shape"/>
<feGaussianBlur stdDeviation="2.71828" result="effect1_foregroundBlur_7_224"/>
</filter>
<filter id="filter1_f_7_224" x="507.781" y="393.288" width="86.4332" height="86.1258" filterUnits="userSpaceOnUse" color-interpolation-filters="sRGB">
<feFlood flood-opacity="0" result="BackgroundImageFix"/>
<feBlend mode="normal" in="SourceGraphic" in2="BackgroundImageFix" result="shape"/>
<feGaussianBlur stdDeviation="4.07742" result="effect1_foregroundBlur_7_224"/>
</filter>
<filter id="filter2_dd_7_224" x="269.859" y="137.071" width="187.98" height="221.597" filterUnits="userSpaceOnUse" color-interpolation-filters="sRGB">
<feFlood flood-opacity="0" result="BackgroundImageFix"/>
<feColorMatrix in="SourceAlpha" type="matrix" values="0 0 0 0 0 0 0 0 0 0 0 0 0 0 0 0 0 0 127 0" result="hardAlpha"/>
<feOffset dx="8" dy="9"/>
<feGaussianBlur stdDeviation="14"/>
<feColorMatrix type="matrix" values="0 0 0 0 0.0755213 0 0 0 0 0.582569 0 0 0 0 0.878793 0 0 0 0.229458 0"/>
<feBlend mode="normal" in2="BackgroundImageFix" result="effect1_dropShadow_7_224"/>
<feColorMatrix in="SourceAlpha" type="matrix" values="0 0 0 0 0 0 0 0 0 0 0 0 0 0 0 0 0 0 127 0" result="hardAlpha"/>
<feOffset dy="2"/>
<feGaussianBlur stdDeviation="7.5"/>
<feColorMatrix type="matrix" values="0 0 0 0 0.503982 0 0 0 0 0.700178 0 0 0 0 1 0 0 0 0.233829 0"/>
<feBlend mode="normal" in2="effect1_dropShadow_7_224" result="effect2_dropShadow_7_224"/>
<feBlend mode="normal" in="SourceGraphic" in2="effect2_dropShadow_7_224" result="shape"/>
</filter>
<filter id="filter3_dd_7_224" x="310.538" y="164.307" width="106.788" height="107.395" filterUnits="userSpaceOnUse" color-interpolation-filters="sRGB">
<feFlood flood-opacity="0" result="BackgroundImageFix"/>
<feColorMatrix in="SourceAlpha" type="matrix" values="0 0 0 0 0 0 0 0 0 0 0 0 0 0 0 0 0 0 127 0" result="hardAlpha"/>
<feOffset dx="8" dy="9"/>
<feGaussianBlur stdDeviation="14"/>
<feColorMatrix type="matrix" values="0 0 0 0 0.0755213 0 0 0 0 0.582569 0 0 0 0 0.878793 0 0 0 0.229458 0"/>
<feBlend mode="normal" in2="BackgroundImageFix" result="effect1_dropShadow_7_224"/>
<feColorMatrix in="SourceAlpha" type="matrix" values="0 0 0 0 0 0 0 0 0 0 0 0 0 0 0 0 0 0 127 0" result="hardAlpha"/>
<feOffset dy="2"/>
<feGaussianBlur stdDeviation="7.5"/>
<feColorMatrix type="matrix" values="0 0 0 0 0.503982 0 0 0 0 0.700178 0 0 0 0 1 0 0 0 0.233829 0"/>
<feBlend mode="normal" in2="effect1_dropShadow_7_224" result="effect2_dropShadow_7_224"/>
<feBlend mode="normal" in="SourceGraphic" in2="effect2_dropShadow_7_224" result="shape"/>
</filter>
<linearGradient id="paint0_linear_7_224" x1="261.228" y1="323.024" x2="261.228" y2="253.87" gradientUnits="userSpaceOnUse">
<stop stop-color="#FF8C19"/>
<stop offset="1" stop-color="#FFC967"/>
</linearGradient>
<linearGradient id="paint1_linear_7_224" x1="253.021" y1="295.455" x2="253.021" y2="263.937" gradientUnits="userSpaceOnUse">
<stop stop-color="#F8FDFF"/>
<stop offset="1" stop-color="#AAD4FF"/>
</linearGradient>
<linearGradient id="paint2_linear_7_224" x1="466.925" y1="293.05" x2="471.002" y2="364.409" gradientUnits="userSpaceOnUse">
<stop stop-color="#FDC6C6"/>
<stop offset="1" stop-color="#FFCCA1"/>
</linearGradient>
<linearGradient id="paint3_linear_7_224" x1="476.488" y1="541.724" x2="478.155" y2="561.006" gradientUnits="userSpaceOnUse">
<stop stop-color="#FDC6C6"/>
<stop offset="1" stop-color="#FAB2B2"/>
</linearGradient>
<linearGradient id="paint4_linear_7_224" x1="426.204" y1="539.781" x2="427.782" y2="560.412" gradientUnits="userSpaceOnUse">
<stop stop-color="#FDC6C6"/>
<stop offset="1" stop-color="#FAB2B2"/>
</linearGradient>
<linearGradient id="paint5_linear_7_224" x1="425.84" y1="206.377" x2="429.249" y2="252.888" gradientUnits="userSpaceOnUse">
<stop stop-color="#FDC6C6"/>
<stop offset="1" stop-color="#FFCCA1"/>
</linearGradient>
<linearGradient id="paint6_linear_7_224" x1="349.014" y1="206.959" x2="359.688" y2="294.926" gradientUnits="userSpaceOnUse">
<stop stop-color="#FDC6C6"/>
<stop offset="1" stop-color="#FFCCA1"/>
</linearGradient>
</defs>
</svg>
